{
  "accessors": [
    {
      "bufferView": 2,
      "componentType": 5126,
      "count": 106,
      "max": [
        40.54802322387695,
        102.78002166748047,
        41.416351318359375
      ],
      "min": [
        -40.54804611206055,
        -15.52320384979248,
        -41.4163703918457
      ],
      "type": "VEC3"
    },
    {
      "bufferView": 2,
      "byteOffset": 1272,
      "componentType": 5126,
      "count": 106,
      "max": [
        0.972396731376648,
        0.9983335733413696,
        0.9931829571723938
      ],
      "min": [
        -0.9675491452217102,
        -0.4458891749382019,
        -0.988308846950531
      ],
      "type": "VEC3"
    },
    {
      "bufferView": 1,
      "componentType": 5126,
      "count": 106,
      "max": [
        0.7499999403953552,
        1.0
      ],
      "min": [
        0.25,
        0.5
      ],
      "type": "VEC2"
    },
    {
      "bufferView": 0,
      "componentType": 5125,
      "count": 546,
      "type": "SCALAR"
    },
    {
      "bufferView": 2,
      "byteOffset": 2544,
      "componentType": 5126,
      "count": 76,
      "max": [
        24.305376052856445,
        80.09136962890625,
        24.81647300720215
      ],
      "min": [
        -24.28632926940918,
        7.165434837341309,
        -24.81244468688965
      ],
      "type": "VEC3"
    },
    {
      "bufferView": 2,
      "byteOffset": 3456,
      "componentType": 5126,
      "count": 76,
      "max": [
        0.9716631770133972,
        0.9999918341636658,
        0.9926615357398987
      ],
      "min": [
        -0.9666134119033813,
        -0.4458896815776825,
        -0.9874104261398315
      ],
      "type": "VEC3"
    },
    {
      "bufferView": 1,
      "byteOffset": 848,
      "componentType": 5126,
      "count": 76,
      "max": [
        0.7499999403953552,
        0.7358332872390747
      ],
      "min": [
        0.25,
        0.5
      ],
      "type": "VEC2"
    },
    {
      "bufferView": 0,
      "byteOffset": 2184,
      "componentType": 5125,
      "count": 378,
      "type": "SCALAR"
    },
    {
      "bufferView": 2,
      "byteOffset": 4368,
      "componentType": 5126,
      "count": 1999,
      "max": [
        242.6317596435547,
        593.6390991210938,
        144.05905151367188
      ],
      "min": [
        -214.29498291015625,
        -1.87451171875,
        -219.86720275878906
      ],
      "type": "VEC3"
    },
    {
      "bufferView": 2,
      "byteOffset": 28356,
      "componentType": 5126,
      "count": 1999,
      "max": [
        0.9986562132835388,
        0.9981476664543152,
        0.9999747276306152
      ],
      "min": [
        -0.9990453720092773,
        -0.999563455581665,
        -0.9999656081199646
      ],
      "type": "VEC3"
    },
    {
      "bufferView": 3,
      "componentType": 5126,
      "count": 1999,
      "max": [
        0.9975506663322449,
        0.9999054670333862,
        0.9999995827674866,
        1.0
      ],
      "min": [
        -0.9998838901519775,
        -0.9961588382720947,
        -0.9996071457862854,
        -1.0
      ],
      "type": "VEC4"
    },
    {
      "bufferView": 1,
      "byteOffset": 1456,
      "componentType": 5126,
      "count": 1999,
      "max": [
        0.974125862121582,
        0.99951171875
      ],
      "min": [
        0.00048828125,
        0.006397724151611328
      ],
      "type": "VEC2"
    },
    {
      "bufferView": 0,
      "byteOffset": 3696,
      "componentType": 5125,
      "count": 9462,
      "type": "SCALAR"
    },
    {
      "bufferView": 2,
      "byteOffset": 52344,
      "componentType": 5126,
      "count": 336,
      "max": [
        145.1853790283203,
        394.2580261230469,
        91.82886505126953
      ],
      "min": [
        -113.83541870117188,
        190.92202758789063,
        -167.19189453125
      ],
      "type": "VEC3"
    },
    {
      "bufferView": 2,
      "byteOffset": 56376,
      "componentType": 5126,
      "count": 336,
      "max": [
        0.9944144487380981,
        0.4837425649166107,
        0.9944145083427429
      ],
      "min": [
        -0.9944144487380981,
        -0.6705935001373291,
        -0.9944145083427429
      ],
      "type": "VEC3"
    },
    {
      "bufferView": 1,
      "byteOffset": 17448,
      "componentType": 5126,
      "count": 336,
      "max": [
        0.5637187957763672,
        0.42579385638237
      ],
      "min": [
        0.00048828125,
        0.032381653785705566
      ],
      "type": "VEC2"
    },
    {
      "bufferView": 0,
      "byteOffset": 41544,
      "componentType": 5125,
      "count": 1680,
      "type": "SCALAR"
    },
    {
      "bufferView": 2,
      "byteOffset": 60408,
      "componentType": 5126,
      "count": 4,
      "max": [
        49.999996185302734,
        6.615303846047027e-06,
        50.0
      ],
      "min": [
        -49.99997329711914,
        6.615303846047027e-06,
        -50.0
      ],
      "type": "VEC3"
    },
    {
      "bufferView": 2,
      "byteOffset": 60456,
      "componentType": 5126,
      "count": 4,
      "max": [
        0.0,
        1.0,
        0.0
      ],
      "min": [
        0.0,
        1.0,
        0.0
      ],
      "type": "VEC3"
    },
    {
      "bufferView": 1,
      "byteOffset": 20136,
      "componentType": 5126,
      "count": 4,
      "max": [
        0.9999998807907104,
        0.9999998807907104
      ],
      "min": [
        0.0,
        -8.940696716308594e-08
      ],
      "type": "VEC2"
    },
    {
      "bufferView": 0,
      "byteOffset": 48264,
      "componentType": 5125,
      "count": 6,
      "type": "SCALAR"
    },
    {
      "bufferView": 2,
      "byteOffset": 60504,
      "componentType": 5126,
      "count": 4,
      "max": [
        -192.75381469726563,
        301.8000793457031,
        50.0
      ],
      "min": [
        -292.7537841796875,
        301.8000793457031,
        -50.0
      ],
      "type": "VEC3"
    },
    {
      "bufferView": 2,
      "byteOffset": 60552,
      "componentType": 5126,
      "count": 4,
      "max": [
        0.0,
        -1.0,
        0.0
      ],
      "min": [
        0.0,
        -1.0,
        0.0
      ],
      "type": "VEC3"
    },
    {
      "bufferView": 1,
      "byteOffset": 20168,
      "componentType": 5126,
      "count": 4,
      "max": [
        0.9999998807907104,
        0.9999998807907104
      ],
      "min": [
        0.0,
        -8.940696716308594e-08
      ],
      "type": "VEC2"
    },
    {
      "bufferView": 0,
      "byteOffset": 48288,
      "componentType": 5125,
      "count": 6,
      "type": "SCALAR"
    },
    {
      "bufferView": 4,
      "componentType": 5126,
      "count": 96,
      "max": [
        3.200000047683716
      ],
      "min": [
        0.03333333507180214
      ],
      "type": "SCALAR"
    },
    {
      "bufferView": 5,
      "componentType": 5126,
      "count": 96,
      "max": [
        1.0,
        1.065302848815918,
        1.0
      ],
      "min": [
        1.0,
        0.972546398639679,
        1.0
      ],
      "type": "VEC3"
    },
    {
      "bufferView": 4,
      "byteOffset": 384,
      "componentType": 5126,
      "count": 96,
      "max": [
        3.200000047683716
      ],
      "min": [
        0.03333333507180214
      ],
      "type": "SCALAR"
    },
    {
      "bufferView": 6,
      "componentType": 5126,
      "count": 96,
      "max": [
        0.0,
        0.0,
        0.01427438110113144,
        1.0
      ],
      "min": [
        0.0,
        0.0,
        -0.005890226457268,
        0.9998981356620789
      ],
      "type": "VEC4"
    },
    {
      "bufferView": 4,
      "byteOffset": 768,
      "componentType": 5126,
      "count": 96,
      "max": [
        3.200000047683716
      ],
      "min": [
        0.03333333507180214
      ],
      "type": "SCALAR"
    },
    {
      "bufferView": 5,
      "byteOffset": 1152,
      "componentType": 5126,
      "count": 96,
      "max": [
        1.0,
        1.065302848815918,
        1.0
      ],
      "min": [
        1.0,
        0.972546398639679,
        1.0
      ],
      "type": "VEC3"
    },
    {
      "bufferView": 4,
      "byteOffset": 1152,
      "componentType": 5126,
      "count": 96,
      "max": [
        3.200000047683716
      ],
      "min": [
        0.03333333507180214
      ],
      "type": "SCALAR"
    },
    {
      "bufferView": 6,
      "byteOffset": 1536,
      "componentType": 5126,
      "count": 96,
      "max": [
        0.0,
        0.0,
        0.01427438110113144,
        1.0
      ],
      "min": [
        0.0,
        0.0,
        -0.005890226457268,
        0.9998981356620789
      ],
      "type": "VEC4"
    },
    {
      "bufferView": 4,
      "byteOffset": 1536,
      "componentType": 5126,
      "count": 96,
      "max": [
        3.200000047683716
      ],
      "min": [
        0.03333333507180214
      ],
      "type": "SCALAR"
    },
    {
      "bufferView": 5,
      "byteOffset": 2304,
      "componentType": 5126,
      "count": 96,
      "max": [
        3.5433952808380127,
        1.0,
        0.22245192527770996
      ],
      "min": [
        2.8726141452789307,
        1.0,
        0.22245192527770996
      ],
      "type": "VEC3"
    },
    {
      "bufferView": 4,
      "byteOffset": 1920,
      "componentType": 5126,
      "count": 96,
      "max": [
        3.200000047683716
      ],
      "min": [
        0.03333333507180214
      ],
      "type": "SCALAR"
    },
    {
      "bufferView": 5,
      "byteOffset": 3456,
      "componentType": 5126,
      "count": 96,
      "max": [
        33.98575973510742,
        -430.7035827636719,
        -36.96289825439453
      ],
      "min": [
        4.9539384841918945,
        -590.9293212890625,
        -36.96289825439453
      ],
      "type": "VEC3"
    },
    {
      "bufferView": 4,
      "byteOffset": 2304,
      "componentType": 5126,
      "count": 96,
      "max": [
        3.200000047683716
      ],
      "min": [
        0.03333333507180214
      ],
      "type": "SCALAR"
    },
    {
      "bufferView": 5,
      "byteOffset": 4608,
      "componentType": 5126,
      "count": 96,
      "max": [
        3.5433952808380127,
        1.0,
        0.22245192527770996
      ],
      "min": [
        2.8726141452789307,
        1.0,
        0.22245192527770996
      ],
      "type": "VEC3"
    }
  ],
  "animations": [
    {
      "channels": [
        {
          "sampler": 0,
          "target": {
            "node": 4,
            "path": "scale"
          }
        },
        {
          "sampler": 1,
          "target": {
            "node": 4,
            "path": "rotation"
          }
        },
        {
          "sampler": 2,
          "target": {
            "node": 6,
            "path": "scale"
          }
        },
        {
          "sampler": 3,
          "target": {
            "node": 6,
            "path": "rotation"
          }
        },
        {
          "sampler": 4,
          "target": {
            "node": 11,
            "path": "scale"
          }
        },
        {
          "sampler": 5,
          "target": {
            "node": 13,
            "path": "translation"
          }
        },
        {
          "sampler": 6,
          "target": {
            "node": 13,
            "path": "scale"
          }
        }
      ],
      "name": "Take 001",
      "samplers": [
        {
          "input": 25,
          "interpolation": "LINEAR",
          "output": 26
        },
        {
          "input": 27,
          "interpolation": "LINEAR",
          "output": 28
        },
        {
          "input": 29,
          "interpolation": "LINEAR",
          "output": 30
        },
        {
          "input": 31,
          "interpolation": "LINEAR",
          "output": 32
        },
        {
          "input": 33,
          "interpolation": "LINEAR",
          "output": 34
        },
        {
          "input": 35,
          "interpolation": "LINEAR",
          "output": 36
        },
        {
          "input": 37,
          "interpolation": "LINEAR",
          "output": 38
        }
      ]
    }
  ],
  "asset": {
    "extras": {
      "author": "Duhan (https://sketchfab.com/duhan.dorman)",
      "license": "CC-BY-4.0 (http://creativecommons.org/licenses/by/4.0/)",
      "source": "https://sketchfab.com/3d-models/oil-lamp-3df2a8d050d0493a8872cb9e2d6d0209",
      "title": "Oil Lamp"
    },
    "generator": "Sketchfab-12.68.0",
    "version": "2.0"
  },
  "bufferViews": [
    {
      "buffer": 0,
      "byteLength": 48312,
      "name": "floatBufferViews",
      "target": 34963
    },
    {
      "buffer": 0,
      "byteLength": 20200,
      "byteOffset": 48312,
      "byteStride": 8,
      "name": "floatBufferViews",
      "target": 34962
    },
    {
      "buffer": 0,
      "byteLength": 60600,
      "byteOffset": 68512,
      "byteStride": 12,
      "name": "floatBufferViews",
      "target": 34962
    },
    {
      "buffer": 0,
      "byteLength": 31984,
      "byteOffset": 129112,
      "byteStride": 16,
      "name": "floatBufferViews",
      "target": 34962
    },
    {
      "buffer": 0,
      "byteLength": 2688,
      "byteOffset": 161096,
      "name": "floatBufferViews"
    },
    {
      "buffer": 0,
      "byteLength": 5760,
      "byteOffset": 163784,
      "byteStride": 12,
      "name": "floatBufferViews"
    },
    {
      "buffer": 0,
      "byteLength": 3072,
      "byteOffset": 169544,
      "byteStride": 16,
      "name": "floatBufferViews"
    }
  ],
  "buffers": [
    {
      "byteLength": 172616,
      "uri": "scene.bin"
    }
  ],
  "extensionsUsed": [
    "KHR_materials_transmission"
  ],
  "images": [
    {
      "uri": "textures/phong7_baseColor.png"
    },
    {
      "uri": "textures/phong7_metallicRoughness.png"
    },
    {
      "uri": "textures/phong5_baseColor.png"
    },
    {
      "uri": "textures/lamp_baseColor.png"
    },
    {
      "uri": "textures/lamp_metallicRoughness.png"
    },
    {
      "uri": "textures/lamp_normal.png"
    },
    {
      "uri": "textures/glass_baseColor.png"
    },
    {
      "uri": "textures/glass_metallicRoughness.png"
    },
    {
      "uri": "textures/glass_transmission.png"
    },
    {
      "uri": "textures/phong1_baseColor.png"
    }
  ],
  "materials": [
    {
      "alphaMode": "BLEND",
      "doubleSided": true,
      "name": "phong7",
      "pbrMetallicRoughness": {
        "baseColorFactor": [
          1.0,
          1.0,
          1.0,
          0.243531202435312
        ],
        "baseColorTexture": {
          "index": 0
        },
        "metallicFactor": 0.0,
        "metallicRoughnessTexture": {
          "index": 1
        }
      }
    },
    {
      "alphaMode": "BLEND",
      "doubleSided": true,
      "emissiveFactor": [
        1.0,
        1.0,
        0.9250664767674646
      ],
      "name": "phong5",
      "pbrMetallicRoughness": {
        "baseColorTexture": {
          "index": 2
        },
        "metallicFactor": 0.0
      }
    },
    {
      "doubleSided": true,
      "emissiveFactor": [
        0.0,
        0.004672728758924779,
        0.009599252993531631
      ],
      "name": "lamp",
      "normalTexture": {
        "index": 5
      },
      "pbrMetallicRoughness": {
        "baseColorTexture": {
          "index": 3
        },
        "metallicRoughnessTexture": {
          "index": 4
        }
      }
    },
    {
      "alphaMode": "BLEND",
      "doubleSided": true,
      "emissiveFactor": [
        0.04,
        0.02016795508343675,
        0.0016044930420080503
      ],
      "extensions": {
        "KHR_materials_transmission": {
          "transmissionFactor": 1.0,
          "transmissionTexture": {
            "index": 8
          }
        }
      },
      "name": "glass",
      "pbrMetallicRoughness": {
        "baseColorTexture": {
          "index": 6
        },
        "metallicFactor": 0.0,
        "metallicRoughnessTexture": {
          "index": 7
        }
      }
    },
    {
      "alphaMode": "BLEND",
      "doubleSided": true,
      "emissiveFactor": [
        1.0,
        0.9711031567481363,
        0.4129334567743667
      ],
      "name": "phong1",
      "pbrMetallicRoughness": {
        "baseColorFactor": [
          0.60882800608828,
          0.27045850681969913,
          0.08985243406259247,
          0.4383561643835616
        ],
        "baseColorTexture": {
          "index": 9
        },
        "metallicFactor": 0.0
      }
    }
  ],
  "meshes": [
    {
      "name": "flame_phong7_0",
      "primitives": [
        {
          "attributes": {
            "NORMAL": 1,
            "POSITION": 0,
            "TEXCOORD_0": 2
          },
          "indices": 3,
          "material": 0,
          "mode": 4
        }
      ]
    },
    {
      "name": "flame_inner_phong5_0",
      "primitives": [
        {
          "attributes": {
            "NORMAL": 5,
            "POSITION": 4,
            "TEXCOORD_0": 6
          },
          "indices": 7,
          "material": 1,
          "mode": 4
        }
      ]
    },
    {
      "name": "lamp1_lamp_0",
      "primitives": [
        {
          "attributes": {
            "NORMAL": 9,
            "POSITION": 8,
            "TANGENT": 10,
            "TEXCOORD_0": 11
          },
          "indices": 12,
          "material": 2,
          "mode": 4
        }
      ]
    },
    {
      "name": "lamp1_glass_0",
      "primitives": [
        {
          "attributes": {
            "NORMAL": 14,
            "POSITION": 13,
            "TEXCOORD_0": 15
          },
          "indices": 16,
          "material": 3,
          "mode": 4
        }
      ]
    },
    {
      "name": "lighting_phong1_0",
      "primitives": [
        {
          "attributes": {
            "NORMAL": 18,
            "POSITION": 17,
            "TEXCOORD_0": 19
          },
          "indices": 20,
          "material": 4,
          "mode": 4
        }
      ]
    },
    {
      "name": "lighting1_phong1_0",
      "primitives": [
        {
          "attributes": {
            "NORMAL": 22,
            "POSITION": 21,
            "TEXCOORD_0": 23
          },
          "indices": 24,
          "material": 4,
          "mode": 4
        }
      ]
    }
  ],
  "nodes": [
    {
      "children": [
        1
      ],
      "matrix": [
        1.0,
        0.0,
        0.0,
        0.0,
        0.0,
        2.220446049250313e-16,
        -1.0,
        0.0,
        0.0,
        1.0,
        2.220446049250313e-16,
        0.0,
        0.0,
        0.0,
        0.0,
        1.0
      ],
      "name": "Sketchfab_model"
    },
    {
      "children": [
        2
      ],
      "matrix": [
        1.0,
        0.0,
        0.0,
        0.0,
        0.0,
        0.0,
        1.0,
        0.0,
        0.0,
        -1.0,
        0.0,
        0.0,
        0.0,
        0.0,
        0.0,
        1.0
      ],
      "name": "lamp.fbx"
    },
    {
      "children": [
        3
      ],
      "name": "Object_2"
    },
    {
      "children": [
        4,
        6,
        8,
        11,
        13
      ],
      "name": "RootNode"
    },
    {
      "children": [
        5
      ],
      "name": "flame",
      "rotation": [
        0.0,
        0.0,
        0.010735787451267242,
        0.9999423623085022
      ],
      "scale": [
        1.0,
        1.064203143119812,
        1.0
      ],
      "translation": [
        15.489415168762207,
        239.68223571777344,
        -35.5643424987793
      ]
    },
    {
      "mesh": 0,
      "name": "flame_phong7_0"
    },
    {
      "children": [
        7
      ],
      "name": "flame_inner",
      "rotation": [
        0.0,
        0.0,
        0.010735787451267242,
        0.9999423623085022
      ],
      "scale": [
        1.0,
        1.064203143119812,
        1.0
      ],
      "translation": [
        16.461896896362305,
        225.97695922851563,
        -35.55949020385742
      ]
    },
    {
      "mesh": 1,
      "name": "flame_inner_phong5_0"
    },
    {
      "children": [
        9,
        10
      ],
      "name": "lamp1"
    },
    {
      "mesh": 2,
      "name": "lamp1_lamp_0"
    },
    {
      "mesh": 3,
      "name": "lamp1_glass_0"
    },
    {
      "children": [
        12
      ],
      "name": "lighting",
      "rotation": [
        0.0,
        0.0,
        -0.7666050791740417,
        0.6421188712120056
      ],
      "scale": [
        3.5433952808380127,
        1.0,
        0.22245192527770996
      ],
      "translation": [
        -149.9820556640625,
        300.7310485839844,
        -36.96289825439453
      ]
    },
    {
      "mesh": 4,
      "name": "lighting_phong1_0"
    },
    {
      "children": [
        14
      ],
      "name": "lighting1",
      "rotation": [
        0.0,
        -0.0,
        -0.6409796476364136,
        0.7675578594207764
      ],
      "scale": [
        3.5433952808380127,
        1.0,
        0.22245192527770996
      ],
      "translation": [
        33.98575973510742,
        -590.9293212890625,
        -36.96289825439453
      ]
    },
    {
      "mesh": 5,
      "name": "lighting1_phong1_0"
    }
  ],
  "samplers": [
    {
      "magFilter": 9729,
      "minFilter": 9987,
      "wrapS": 10497,
      "wrapT": 10497
    }
  ],
  "scene": 0,
  "scenes": [
    {
      "name": "Sketchfab_Scene",
      "nodes": [
        0
      ]
    }
  ],
  "textures": [
    {
      "sampler": 0,
      "source": 0
    },
    {
      "sampler": 0,
      "source": 1
    },
    {
      "sampler": 0,
      "source": 2
    },
    {
      "sampler": 0,
      "source": 3
    },
    {
      "sampler": 0,
      "source": 4
    },
    {
      "sampler": 0,
      "source": 5
    },
    {
      "sampler": 0,
      "source": 6
    },
    {
      "sampler": 0,
      "source": 7
    },
    {
      "sampler": 0,
      "source": 8
    },
    {
      "sampler": 0,
      "source": 9
    }
  ]
}
